<svg
        viewBox="0 0 20 20"
        fill="none"
        xmlns="http://www.w3.org/2000/svg"
>
    <path
            fill-rule="evenodd"
            clip-rule="evenodd"
            d="M17.8587 18.5578C18.2529 18.5578 18.5725 18.2383 18.5725 17.8441L18.5725 2.1414C18.5725 1.7472 18.2529 1.42764 17.8587 1.42764L2.15604 1.42764C1.76184 1.42764 1.44228 1.7472 1.44228 2.1414L1.44228 17.8441C1.44228 18.2383 1.76184 18.5578 2.15604 18.5578L17.8587 18.5578ZM20 17.8441C20 19.0267 19.0413 19.9854 17.8587 19.9854L2.15604 19.9854C0.97345 19.9854 0.014769 19.0267 0.014769 17.8441L0.014769 2.1414C0.014769 0.958801 0.97345 0.00012055 2.15604 0.00012055L17.8587 0.00012055C19.0413 0.00012055 20 0.958801 20 2.1414L20 17.8441Z"
            fill="currentColor"
    />
    <path
            fill-rule="evenodd"
            clip-rule="evenodd"
            d="M13.2048 4.99588C12.2193 4.99588 11.4204 5.79478 11.4204 6.78027C11.4204 7.76577 12.2193 8.56467 13.2048 8.56467C14.1903 8.56467 14.9892 7.76577 14.9892 6.78027C14.9892 5.79478 14.1903 4.99588 13.2048 4.99588ZM9.99292 6.78027C9.99292 5.00638 11.4309 3.56836 13.2048 3.56836C14.9787 3.56836 16.4167 5.00638 16.4167 6.78027C16.4167 8.55416 14.9787 9.99218 13.2048 9.99218C11.4309 9.99218 9.99292 8.55416 9.99292 6.78027Z"
            fill="currentColor"
    />
    <path
            fill-rule="evenodd"
            clip-rule="evenodd"
            d="M2.84806 9.9929C5.50442 9.93497 8.09526 10.8216 10.1592 12.4951C12.2256 14.1705 13.6294 16.5256 14.1203 19.1401C14.193 19.5275 13.9379 19.9005 13.5505 19.9733C13.1631 20.046 12.79 19.7909 12.7173 19.4035C12.2889 17.1216 11.0636 15.0662 9.26019 13.6039C7.45676 12.1417 5.19246 11.3678 2.8713 11.4203C2.86529 11.4204 2.85927 11.4205 2.85326 11.4204C2.18034 11.4186 1.50881 11.4813 0.847849 11.6076C0.460656 11.6816 0.0867981 11.4277 0.0128145 11.0405C-0.0611691 10.6533 0.192737 10.2794 0.57993 10.2055C1.3275 10.0626 2.08698 9.99144 2.84806 9.9929Z"
            fill="currentColor"
    />
    <path
            fill-rule="evenodd"
            clip-rule="evenodd"
            d="M10.9536 13.8192C12.4542 13.1749 14.0708 12.8443 15.7039 12.8477C16.9949 12.8471 18.2773 13.0574 19.5005 13.4705C19.8739 13.5966 20.0745 14.0016 19.9483 14.3751C19.8222 14.7486 19.4172 14.9491 19.0437 14.823C17.9677 14.4596 16.8395 14.2746 15.7037 14.2752L15.7018 14.2752C14.263 14.2721 12.8388 14.5633 11.5168 15.1309C11.1546 15.2864 10.7348 15.1189 10.5793 14.7567C10.4238 14.3944 10.5914 13.9747 10.9536 13.8192Z"
            fill="currentColor"
    />
</svg>
