<svg viewBox="0 0 20 20" fill="none" xmlns="http://www.w3.org/2000/svg">
    <path
            d="M0 18.2727L10 1L20 18.2727H0ZM3.13636 16.4545H16.8636L10 4.63636L3.13636 16.4545ZM10 15.5455C10.2576 15.5455 10.4736 15.4582 10.6482 15.2836C10.8221 15.1097 10.9091 14.8939 10.9091 14.6364C10.9091 14.3788 10.8221 14.163 10.6482 13.9891C10.4736 13.8145 10.2576 13.7273 10 13.7273C9.74242 13.7273 9.52667 13.8145 9.35273 13.9891C9.17818 14.163 9.09091 14.3788 9.09091 14.6364C9.09091 14.8939 9.17818 15.1097 9.35273 15.2836C9.52667 15.4582 9.74242 15.5455 10 15.5455ZM9.09091 12.8182H10.9091V8.27273H9.09091V12.8182Z"
            fill="currentColor"/>
</svg>
