<svg
  viewBox="0 0 17 17"
  fill="none"
  xmlns="http://www.w3.org/2000/svg"
>
  <path
    fill-rule="evenodd"
    clip-rule="evenodd"
    d="M16.8222 0.177828C17.0593 0.414932 17.0593 0.799354 16.8222 1.03646L1.03646 16.8222C0.799354 17.0593 0.414932 17.0593 0.177828 16.8222C-0.059276 16.5851 -0.059276 16.2006 0.177828 15.9635L15.9635 0.177828C16.2006 -0.059276 16.5851 -0.059276 16.8222 0.177828Z"
    fill="currentColor"
  />
  <path
    fill-rule="evenodd"
    clip-rule="evenodd"
    d="M0.177828 0.177828C0.414932 -0.059276 0.799354 -0.059276 1.03646 0.177828L16.8222 15.9635C17.0593 16.2006 17.0593 16.5851 16.8222 16.8222C16.5851 17.0593 16.2006 17.0593 15.9635 16.8222L0.177828 1.03646C-0.059276 0.799354 -0.059276 0.414932 0.177828 0.177828Z"
    fill="currentColor"
  />
</svg>
