<svg viewBox="0 0 20 20" fill="none" xmlns="http://www.w3.org/2000/svg">
  <path
    d="M7.5 16C7.08333 16 6.72933 15.854 6.438 15.562C6.146 15.2707 6 14.9167 6 14.5C6 14.0833 6.146 13.7293 6.438 13.438C6.72933 13.146 7.08333 13 7.5 13C7.91667 13 8.27067 13.146 8.562 13.438C8.854 13.7293 9 14.0833 9 14.5C9 14.9167 8.854 15.2707 8.562 15.562C8.27067 15.854 7.91667 16 7.5 16ZM12.5 16C12.0833 16 11.7293 15.854 11.438 15.562C11.146 15.2707 11 14.9167 11 14.5C11 14.0833 11.146 13.7293 11.438 13.438C11.7293 13.146 12.0833 13 12.5 13C12.9167 13 13.2707 13.146 13.562 13.438C13.854 13.7293 14 14.0833 14 14.5C14 14.9167 13.854 15.2707 13.562 15.562C13.2707 15.854 12.9167 16 12.5 16ZM7.5 11.5C7.08333 11.5 6.72933 11.354 6.438 11.062C6.146 10.7707 6 10.4167 6 10C6 9.58333 6.146 9.22933 6.438 8.938C6.72933 8.646 7.08333 8.5 7.5 8.5C7.91667 8.5 8.27067 8.646 8.562 8.938C8.854 9.22933 9 9.58333 9 10C9 10.4167 8.854 10.7707 8.562 11.062C8.27067 11.354 7.91667 11.5 7.5 11.5ZM12.5 11.5C12.0833 11.5 11.7293 11.354 11.438 11.062C11.146 10.7707 11 10.4167 11 10C11 9.58333 11.146 9.22933 11.438 8.938C11.7293 8.646 12.0833 8.5 12.5 8.5C12.9167 8.5 13.2707 8.646 13.562 8.938C13.854 9.22933 14 9.58333 14 10C14 10.4167 13.854 10.7707 13.562 11.062C13.2707 11.354 12.9167 11.5 12.5 11.5ZM7.5 7C7.08333 7 6.72933 6.854 6.438 6.562C6.146 6.27067 6 5.91667 6 5.5C6 5.08333 6.146 4.72933 6.438 4.438C6.72933 4.146 7.08333 4 7.5 4C7.91667 4 8.27067 4.146 8.562 4.438C8.854 4.72933 9 5.08333 9 5.5C9 5.91667 8.854 6.27067 8.562 6.562C8.27067 6.854 7.91667 7 7.5 7ZM12.5 7C12.0833 7 11.7293 6.854 11.438 6.562C11.146 6.27067 11 5.91667 11 5.5C11 5.08333 11.146 4.72933 11.438 4.438C11.7293 4.146 12.0833 4 12.5 4C12.9167 4 13.2707 4.146 13.562 4.438C13.854 4.72933 14 5.08333 14 5.5C14 5.91667 13.854 6.27067 13.562 6.562C13.2707 6.854 12.9167 7 12.5 7Z"
    fill="currentColor"/>
</svg>
